<svg width="400" height="400" viewBox="0 0 400 400" xmlns="http://www.w3.org/2000/svg">
  <defs>
    <pattern id="g" width="20" height="20" patternUnits="userSpaceOnUse">
      <path d="M20 0L0 0 0 20" fill="none" stroke="rgba(0,245,255,0.05)" stroke-width="0.5"/>
    </pattern>
  </defs>
  <rect width="400" height="400" fill="#020810"/>
  <rect width="400" height="260" fill="#030c18"/>
  <ellipse cx="70" cy="80" rx="40" ry="40" fill="rgba(191,0,255,0.15)"/>
  <circle cx="70" cy="80" r="12" fill="#150828" stroke="rgba(191,0,255,0.6)" stroke-width="1.5"/>
  <circle cx="70" cy="80" r="8" fill="#1a0535"/>
  <circle cx="40" cy="50" r="1" fill="rgba(255,255,255,0.7)"/>
  <circle cx="120" cy="30" r="0.8" fill="rgba(255,255,255,0.5)"/>
  <circle cx="200" cy="20" r="1" fill="rgba(255,255,255,0.6)"/>
  <circle cx="310" cy="45" r="0.8" fill="rgba(255,255,255,0.5)"/>
  <circle cx="360" cy="25" r="1.2" fill="rgba(255,255,255,0.7)"/>
  <circle cx="260" cy="60" r="0.7" fill="rgba(255,255,255,0.4)"/>
  <circle cx="160" cy="55" r="0.9" fill="rgba(255,255,255,0.5)"/>
  <rect x="0" y="200" width="50" height="200" fill="#070e1c"/>
  <rect x="5" y="240" width="40" height="160" fill="#060c19"/>
  <rect x="10" y="210" width="8" height="6" fill="rgba(255,230,0,0.3)"/>
  <rect x="22" y="210" width="8" height="6" fill="rgba(255,230,0,0.15)"/>
  <rect x="10" y="222" width="8" height="6" fill="rgba(255,230,0,0.4)"/>
  <rect x="22" y="234" width="8" height="6" fill="rgba(0,245,255,0.3)"/>
  <rect x="40" y="170" width="70" height="230" fill="#060d1e"/>
  <rect x="50" y="180" width="50" height="220" fill="#070f21"/>
  <rect x="52" y="185" width="8" height="6" fill="rgba(255,230,0,0.5)"/>
  <rect x="64" y="185" width="8" height="6" fill="rgba(255,230,0,0.2)"/>
  <rect x="76" y="185" width="8" height="6" fill="rgba(255,230,0,0.4)"/>
  <rect x="52" y="197" width="8" height="6" fill="rgba(0,245,255,0.35)"/>
  <rect x="64" y="197" width="8" height="6" fill="rgba(255,230,0,0.3)"/>
  <rect x="52" y="209" width="8" height="6" fill="rgba(255,230,0,0.4)"/>
  <rect x="76" y="221" width="8" height="6" fill="rgba(255,0,110,0.4)"/>
  <rect x="100" y="150" width="90" height="250" fill="#050c1d"/>
  <rect x="110" y="155" width="70" height="245" fill="#060e1f"/>
  <rect x="112" y="160" width="9" height="7" fill="rgba(255,230,0,0.4)"/>
  <rect x="125" y="160" width="9" height="7" fill="rgba(0,245,255,0.5)"/>
  <rect x="138" y="160" width="9" height="7" fill="rgba(255,230,0,0.2)"/>
  <rect x="155" y="160" width="9" height="7" fill="rgba(255,230,0,0.4)"/>
  <rect x="112" y="173" width="9" height="7" fill="rgba(255,230,0,0.3)"/>
  <rect x="138" y="173" width="9" height="7" fill="rgba(191,0,255,0.35)"/>
  <rect x="112" y="186" width="9" height="7" fill="rgba(0,245,255,0.3)"/>
  <rect x="155" y="186" width="9" height="7" fill="rgba(255,230,0,0.5)"/>
  <rect x="112" y="199" width="9" height="7" fill="rgba(255,0,110,0.4)"/>
  <rect x="180" y="120" width="80" height="280" fill="#060d1e"/>
  <rect x="190" y="128" width="60" height="272" fill="#07101f"/>
  <rect x="193" y="133" width="9" height="7" fill="rgba(255,230,0,0.5)"/>
  <rect x="206" y="133" width="9" height="7" fill="rgba(255,230,0,0.3)"/>
  <rect x="221" y="133" width="9" height="7" fill="rgba(0,245,255,0.5)"/>
  <rect x="235" y="133" width="9" height="7" fill="rgba(255,230,0,0.2)"/>
  <rect x="193" y="146" width="9" height="7" fill="rgba(255,0,110,0.35)"/>
  <rect x="221" y="146" width="9" height="7" fill="rgba(255,230,0,0.3)"/>
  <rect x="235" y="146" width="9" height="7" fill="rgba(191,0,255,0.4)"/>
  <rect x="193" y="159" width="9" height="7" fill="rgba(255,230,0,0.5)"/>
  <rect x="221" y="159" width="9" height="7" fill="rgba(255,230,0,0.4)"/>
  <rect x="250" y="160" width="75" height="240" fill="#050c1c"/>
  <rect x="258" y="168" width="58" height="232" fill="#060e1f"/>
  <rect x="261" y="173" width="8" height="6" fill="rgba(255,230,0,0.4)"/>
  <rect x="273" y="173" width="8" height="6" fill="rgba(0,245,255,0.5)"/>
  <rect x="285" y="173" width="8" height="6" fill="rgba(255,230,0,0.2)"/>
  <rect x="299" y="173" width="8" height="6" fill="rgba(255,230,0,0.4)"/>
  <rect x="261" y="185" width="8" height="6" fill="rgba(191,0,255,0.35)"/>
  <rect x="285" y="185" width="8" height="6" fill="rgba(255,230,0,0.4)"/>
  <rect x="261" y="197" width="8" height="6" fill="rgba(255,230,0,0.5)"/>
  <rect x="299" y="209" width="8" height="6" fill="rgba(255,0,110,0.4)"/>
  <rect x="310" y="140" width="90" height="260" fill="#060d1e"/>
  <rect x="318" y="148" width="74" height="252" fill="#07101f"/>
  <rect x="321" y="153" width="9" height="7" fill="rgba(255,230,0,0.5)"/>
  <rect x="334" y="153" width="9" height="7" fill="rgba(0,245,255,0.4)"/>
  <rect x="349" y="153" width="9" height="7" fill="rgba(255,230,0,0.3)"/>
  <rect x="364" y="153" width="9" height="7" fill="rgba(191,0,255,0.5)"/>
  <rect x="377" y="153" width="9" height="7" fill="rgba(255,230,0,0.2)"/>
  <rect x="321" y="166" width="9" height="7" fill="rgba(255,0,110,0.35)"/>
  <rect x="364" y="166" width="9" height="7" fill="rgba(0,245,255,0.3)"/>
  <rect x="321" y="179" width="9" height="7" fill="rgba(255,230,0,0.4)"/>
  <rect x="349" y="179" width="9" height="7" fill="rgba(255,230,0,0.5)"/>
  <rect x="334" y="192" width="9" height="7" fill="rgba(0,245,255,0.4)"/>
  <rect x="0" y="320" width="400" height="80" fill="#030a15"/>
  <line x1="0" y1="320" x2="400" y2="320" stroke="rgba(0,245,255,0.3)" stroke-width="1"/>
  <rect x="0" y="325" width="400" height="75" fill="#020810"/>
  <rect x="0" y="380" width="400" height="20" fill="#010508"/>
  <rect width="400" height="400" fill="url(#g)"/>
  <text x="60" y="175" font-family="monospace" font-size="7" fill="rgba(255,0,110,0.7)" letter-spacing="1">NEON DISTRICT</text>
  <text x="195" y="115" font-family="monospace" font-size="6" fill="rgba(0,245,255,0.6)" letter-spacing="1">SYS://ONLINE</text>
  <text x="315" y="135" font-family="monospace" font-size="5" fill="rgba(191,0,255,0.7)" letter-spacing="1">SECTOR-7</text>
</svg>
