<svg width="400" height="400" viewBox="0 0 400 400" xmlns="http://www.w3.org/2000/svg">
  <defs>
    <pattern id="grid" width="40" height="40" patternUnits="userSpaceOnUse">
      <path d="M40 0L0 0 0 40" fill="none" stroke="rgba(0,245,255,0.07)" stroke-width="0.8"/>
    </pattern>
    <pattern id="grid2" width="200" height="200" patternUnits="userSpaceOnUse">
      <path d="M200 0L0 0 0 200" fill="none" stroke="rgba(0,245,255,0.12)" stroke-width="1.2"/>
    </pattern>
    <radialGradient id="glow1" cx="30%" cy="30%" r="40%">
      <stop offset="0%" stop-color="rgba(191,0,255,0.08)"/>
      <stop offset="100%" stop-color="rgba(191,0,255,0)"/>
    </radialGradient>
    <radialGradient id="glow2" cx="75%" cy="70%" r="35%">
      <stop offset="0%" stop-color="rgba(0,245,255,0.06)"/>
      <stop offset="100%" stop-color="rgba(0,245,255,0)"/>
    </radialGradient>
  </defs>
  <rect width="400" height="400" fill="#020810"/>
  <rect width="400" height="400" fill="url(#glow1)"/>
  <rect width="400" height="400" fill="url(#glow2)"/>
  <rect width="400" height="400" fill="url(#grid)"/>
  <rect width="400" height="400" fill="url(#grid2)"/>
  <circle cx="0" cy="0" r="2" fill="rgba(0,245,255,0.6)"/>
  <circle cx="200" cy="200" r="2" fill="rgba(191,0,255,0.5)"/>
  <circle cx="400" cy="400" r="2" fill="rgba(0,245,255,0.6)"/>
  <circle cx="400" cy="0" r="2" fill="rgba(0,245,255,0.6)"/>
  <circle cx="0" cy="400" r="2" fill="rgba(191,0,255,0.5)"/>
  <circle cx="40" cy="200" r="1.5" fill="rgba(0,245,255,0.5)"/>
  <circle cx="80" cy="200" r="1.5" fill="rgba(0,245,255,0.5)"/>
  <circle cx="120" cy="200" r="1" fill="rgba(191,0,255,0.4)"/>
  <line x1="0" y1="200" x2="400" y2="200" stroke="rgba(0,245,255,0.04)" stroke-width="1"/>
  <line x1="200" y1="0" x2="200" y2="400" stroke="rgba(0,245,255,0.04)" stroke-width="1"/>
</svg>
